<svg width="390" height="634" viewBox="0 0 390 634" fill="none" xmlns="http://www.w3.org/2000/svg">
<path d="M134 1H355C373.778 1 389 16.2223 389 35V599C389 617.778 373.778 633 355 633H134C115.222 633 100 617.778 100 599V35C100 16.2223 115.222 1 134 1Z" fill="white"/>
<path d="M134 1H355C373.778 1 389 16.2223 389 35V599C389 617.778 373.778 633 355 633H134C115.222 633 100 617.778 100 599V35C100 16.2223 115.222 1 134 1Z" stroke="black" stroke-width="2"/>
<g filter="url(#filter0_d_538_2025)">
<rect x="34" y="523" width="322" height="53" rx="26.5" fill="black" shape-rendering="crispEdges"/>
<rect x="34.5" y="523.5" width="321" height="52" rx="26" stroke="black" shape-rendering="crispEdges"/>
<path d="M61.438 555V545.496H58.414V543.786H66.568V545.496H63.382V555H61.438ZM68.242 546.63H70.348L70.33 548.97L70.096 548.826C70.144 548.454 70.246 548.124 70.402 547.836C70.57 547.548 70.774 547.296 71.014 547.08C71.266 546.864 71.536 546.702 71.824 546.594C72.124 546.486 72.43 546.432 72.742 546.432C73.21 546.432 73.63 546.51 74.002 546.666C74.386 546.81 74.74 547.05 75.064 547.386L74.2 549.096L74.146 549.24L73.984 549.168C73.948 549.072 73.912 548.976 73.876 548.88C73.84 548.772 73.75 548.652 73.606 548.52C73.438 548.388 73.258 548.286 73.066 548.214C72.886 548.142 72.688 548.106 72.472 548.106C72.184 548.106 71.908 548.154 71.644 548.25C71.38 548.346 71.146 548.496 70.942 548.7C70.75 548.904 70.594 549.168 70.474 549.492C70.366 549.804 70.312 550.176 70.312 550.608V555H68.242V546.63ZM77.548 558.168C77.152 558.168 76.792 558.096 76.468 557.952C76.156 557.82 75.85 557.634 75.55 557.394L76.252 555.99L76.324 555.828L76.486 555.9C76.522 555.996 76.564 556.086 76.612 556.17C76.672 556.254 76.78 556.35 76.936 556.458C77.02 556.506 77.11 556.542 77.206 556.566C77.314 556.59 77.428 556.602 77.548 556.602C77.788 556.602 77.992 556.536 78.16 556.404C78.34 556.272 78.502 556.068 78.646 555.792C78.802 555.516 78.952 555.162 79.096 554.73L80.914 549.6C81.094 549.084 81.244 548.586 81.364 548.106C81.496 547.626 81.574 547.134 81.598 546.63H83.488C83.44 547.17 83.314 547.74 83.11 548.34C82.906 548.928 82.702 549.498 82.498 550.05L80.428 555.738C80.092 556.626 79.684 557.25 79.204 557.61C78.736 557.982 78.184 558.168 77.548 558.168ZM75.838 546.63H77.872L80.338 553.02L79.276 555.198L75.838 546.63ZM94.072 555V553.398H96.124V548.232H94.18V546.63H98.176V553.398H100.048V555H94.072ZM97.06 545.244C96.712 545.244 96.412 545.124 96.16 544.884C95.908 544.644 95.782 544.356 95.782 544.02C95.782 543.66 95.902 543.366 96.142 543.138C96.382 542.91 96.688 542.796 97.06 542.796C97.396 542.796 97.69 542.916 97.942 543.156C98.206 543.396 98.338 543.684 98.338 544.02C98.338 544.356 98.206 544.644 97.942 544.884C97.69 545.124 97.396 545.244 97.06 545.244ZM106.582 555.18C106.102 555.18 105.682 555.102 105.322 554.946C104.974 554.79 104.68 554.538 104.44 554.19C104.212 553.842 104.044 553.38 103.936 552.804C103.84 552.228 103.81 551.514 103.846 550.662L104.08 544.65L106.186 544.38L106.348 544.362L106.366 544.524C106.318 544.608 106.27 544.692 106.222 544.776C106.174 544.86 106.144 545.004 106.132 545.208L105.934 547.692L106.024 547.818L105.88 550.626C105.844 551.406 105.868 552.012 105.952 552.444C106.048 552.864 106.186 553.152 106.366 553.308C106.558 553.464 106.786 553.542 107.05 553.542C107.434 553.542 107.776 553.464 108.076 553.308C108.388 553.152 108.676 552.972 108.94 552.768L109.372 554.244C108.964 554.544 108.526 554.778 108.058 554.946C107.602 555.102 107.11 555.18 106.582 555.18ZM102.262 546.63H108.706L108.688 548.232H102.226L102.262 546.63Z" fill="white"/>
<path d="M317.753 552.964C317.692 552.902 317.712 552.781 317.8 552.694L324.143 546.35H319.101V544.925L325.136 544.925L326.575 546.364L326.576 552.399L325.15 552.4V547.357L318.806 553.701C318.719 553.788 318.598 553.808 318.536 553.747L317.753 552.964Z" fill="white"/>
</g>
<defs>
<filter id="filter0_d_538_2025" x="0" y="503" width="390" height="121" filterUnits="userSpaceOnUse" color-interpolation-filters="sRGB">
<feFlood flood-opacity="0" result="BackgroundImageFix"/>
<feColorMatrix in="SourceAlpha" type="matrix" values="0 0 0 0 0 0 0 0 0 0 0 0 0 0 0 0 0 0 127 0" result="hardAlpha"/>
<feOffset dy="14"/>
<feGaussianBlur stdDeviation="17"/>
<feComposite in2="hardAlpha" operator="out"/>
<feColorMatrix type="matrix" values="0 0 0 0 0 0 0 0 0 0 0 0 0 0 0 0 0 0 0.25 0"/>
<feBlend mode="normal" in2="BackgroundImageFix" result="effect1_dropShadow_538_2025"/>
<feBlend mode="normal" in="SourceGraphic" in2="effect1_dropShadow_538_2025" result="shape"/>
</filter>
</defs>
</svg>
