<svg width="53" height="50" viewBox="0 0 53 50" fill="none" xmlns="http://www.w3.org/2000/svg">
<path d="M29.6574 0L30.3889 0.730469L36.3205 6.64844L37.0549 7.38184V12.2188L31.884 17.3896L31.8771 17.3828L30.3908 18.8701L29.6584 19.6016H22.4162L21.6838 18.8701L15.7658 12.9512L15.0334 12.2188V7.38281L22.4162 0H29.6574ZM24.4875 5L20.0334 9.4541V10.1475L24.4875 14.6016H27.5881L28.9182 13.2705L28.925 13.2773L32.0549 10.1484V9.45508L27.59 5H24.4875Z" fill="black"/>
<path d="M14.624 14.8706L15.3555 15.6011L21.2871 21.519L22.0215 22.2524V27.0894L16.8506 32.2603L16.8438 32.2534L15.3574 33.7407L14.625 34.4722H7.38281L6.65039 33.7407L0.732422 27.8218L0 27.0894V22.2534L7.38281 14.8706H14.624ZM9.4541 19.8706L5 24.3247V25.0181L9.4541 29.4722H12.5547L13.8848 28.1411L13.8916 28.1479L17.0215 25.019V24.3257L12.5566 19.8706H9.4541Z" fill="black"/>
<path d="M44.9626 14.8706L45.694 15.6011L51.6257 21.519L52.36 22.2524V27.0894L47.1891 32.2603L47.1823 32.2534L45.696 33.7407L44.9636 34.4722H37.7214L36.989 33.7407L31.071 27.8218L30.3386 27.0894V22.2534L37.7214 14.8706H44.9626ZM39.7927 19.8706L35.3386 24.3247V25.0181L39.7927 29.4722H42.8932L44.2233 28.1411L44.2302 28.1479L47.36 25.019V24.3257L42.8952 19.8706H39.7927Z" fill="black"/>
<path d="M22.7024 49.3467L21.9709 48.6162L16.0393 42.6982L15.3049 41.9648L15.3049 37.1279L20.4758 31.957L20.4827 31.9639L21.969 30.4766L22.7014 29.7451L29.9436 29.7451L30.676 30.4766L36.594 36.3955L37.3264 37.1279L37.3264 41.9639L29.9436 49.3467L22.7024 49.3467ZM27.8723 44.3467L32.3264 39.8926L32.3264 39.1992L27.8723 34.7451L24.7717 34.7451L23.4417 36.0762L23.4348 36.0693L20.3049 39.1982L20.3049 39.8916L24.7698 44.3467L27.8723 44.3467Z" fill="black"/>
</svg>
