<svg width="45" height="51" viewBox="0 0 45 51" fill="none" xmlns="http://www.w3.org/2000/svg">
<path d="M44.4355 33.3789L43.4131 34.4043L28.2393 49.6123L27.2139 50.6396L17.2246 50.6396L16.1992 49.6152L4.81933 38.2344L4.83691 38.2168L1.02539 34.4072L-1.45917e-06 33.3818L-7.52869e-07 17.2236L1.02539 16.1992L17.2246 -1.18943e-06L27.2119 -7.52869e-07L28.2363 1.02539L31.0293 3.81738L43.4102 16.1992L44.4355 17.2236L44.4355 33.3789ZM37.4355 20.123L24.3125 7L20.124 7L7 20.124L7 30.4814L11.2646 34.7471L11.248 34.7637L20.123 43.6396L24.3105 43.6396L37.4355 30.4844L37.4355 20.123Z" fill="black"/>
</svg>
